# xmcd CD database file
#
# Track frame offsets:
#	150
#	14030
#	25520
#	41905
#	55140
#	69805
#	87985
#	99590
#	113345
#	128995
#	141315
#	156310
#	175510
#	188355
#
# Disc length: 2682 seconds
#
# Revision: 0
# Processed by: cddbd v1.5.2PL0 Copyright (c) Steve Scherf et al.
# Submitted via: CDex 1.70beta2
#
DISCID=ae0a780e
DTITLE=Norah Jones - Come Away With Me
DYEAR=2002
DGENRE=Jazz
TTITLE0=01 - Don't Know Why
TTITLE1=02 - Seven Years
TTITLE2=03 - Cold, Cold Heart 
TTITLE3=04 - Feelin' the Same Way 
TTITLE4=05 - Come Away With Me
TTITLE5=06 - Shoot the Moon
TTITLE6=07 - Turn Me On
TTITLE7=08 - Lonestar
TTITLE8=09 - I've Got to See You Again
TTITLE9=10 - Painter Song 
TTITLE10=11 - One Flight Down 
TTITLE11=12 - Nightingale
TTITLE12=13 - The Long Day Is Over 
TTITLE13=14 - The Nearness of You 
EXTD=YEAR: 2002
EXTT0=
EXTT1=
EXTT2=
EXTT3=
EXTT4=
EXTT5=
EXTT6=
EXTT7=
EXTT8=
EXTT9=
EXTT10=
EXTT11=
EXTT12=
EXTT13=
PLAYORDER=
